# xmcd CD database file
#
# Track frame offsets:
#	150
#	17180
#	46110
#
# Disc length: 912 seconds
#
# Revision: 0
# Processed by: cddbd v1.5.1PL0 Copyright (c) Steve Scherf et al.
# Submitted via: CDex 1.51
#
DISCID=1a038e03
DTITLE=Skoop On Somebody - happypeople
DYEAR=2005
DGENRE=JPop
TTITLE0=happypeople
TTITLE1=永遠の星空
TTITLE2=Summer Love
EXTD=YEAR: 2005
EXTT0=
EXTT1=
EXTT2=
PLAYORDER=
